<?xml version="1.0" encoding="utf-8"?>
<!-- Generator: Adobe Illustrator 21.0.0, SVG Export Plug-In . SVG Version: 6.00 Build 0)  -->
<svg version="1.1" id="Слой_1" xmlns="http://www.w3.org/2000/svg" xmlns:xlink="http://www.w3.org/1999/xlink" x="0px" y="0px"
	 viewBox="0 0 29 23.6" style="enable-background:new 0 0 29 23.6;" xml:space="preserve">
<style type="text/css">
	.st0{fill:#0D0F11;}
</style>
<polygon class="st0" points="3.3,6.4 3.3,4.2 11.4,0 14.3,5 "/>
<path class="st0" d="M8,7.5V17l1.4,0.7l2.5-4.4l2.7,4.7l-3.2,5.6l-8.1-4.2v-9.1L0,9.2l2.8-0.5l2.7-0.6l0,0L8,7.5L8,7.5z M22.9,17.7
	l-2.5-4.4L17.7,18l3.2,5.6l8.1-4.2V4.2L20.9,0l-2.6,4.5l8.1-1.1l-8.6,1.9l-1.7,2.9l-1.3-2.3l-4.7,1.2l6.1,10.5L23,5.9l1.4,0.7V17
	L22.9,17.7z"/>
</svg>
